{"title":"Ben. Hur. 2016.TS.H264","uid":15726520,"size":1009039289,"categoryP":"video","categoryS":"movies","magnet":"?xt=urn:btih:adc3924266f81adf91ddfd973bf4f6d8fc166edd&amp;dn=Ben.+Hur.+2016.TS.H264&amp;tr=udp%3A%2F%2Ftracker.leechers-paradise.org%3A6969&amp;tr=udp%3A%2F%2Fzer0day.ch%3A1337&amp;tr=udp%3A%2F%2Fopen.demonii.com%3A1337&amp;tr=udp%3A%2F%2Ftracker.coppersurfer.tk%3A6969&amp;tr=udp%3A%2F%2Fexodus.desync.com%3A6969","seeders":11,"leechers":5,"uploader":"xxTheOnexx","files":13,"time":1472725755,"description":"Thanks to team ExtraTorrent.\r\n\r\nRan it thru a few filters, denoised the video added some color, came out better then the original, enjoy and don't forget to seed. \r\n\r\n \nhttp://postimg.org/gallery/1xjtqoira/\r\n\r\n\r\n\r\nGeneral\r\n-------\r\nBen. Hur. 2016.TS.H264.mp4\r\nFormat                    : MPEG-4\r\nFormat profile            : Base Media / Version 2\r\nCodec ID                  : mp42\r\nFile size                 : 941 MiB\r\nDuration                  : 1h 56mn\r\nOverall bit rate mode     : Variable\r\nOverall bit rate          : 1 128 Kbps\r\n©TIM                      : 00;00;00;00\r\n©TSC                      : 2997\r\n©TSZ                      : 100\r\n\r\nVideo\r\n-----\r\nID                        : 1\r\nFormat                    : AVC\r\nFormat/Info               : Advanced Video Codec\r\nFormat profile            :   \r\nFormat settings, CABAC    : Yes\r\nFormat settings, ReFrames : 3 frames\r\nCodec ID                  : avc1\r\nCodec ID/Info             : Advanced Video Coding\r\nDuration                  : 1h 56mn\r\nSource duration           : 1h 56mn\r\nBit rate                  : 994 Kbps\r\nWidth                     : 720 pixels\r\nHeight                    : 304 pixels\r\nDisplay aspect ratio      : 2.35:1\r\nFrame rate mode           : Variable\r\nFrame rate                : 29.970 fps\r\nMinimum frame rate        : 29.970 fps\r\nMaximum frame rate        : 30.000 fps\r\nStandard                  : NTSC\r\nColor space               : YUV\r\nChroma subsampling        : 4:2:0\r\nBit depth                 : 8 bits\r\nScan type                 : Progressive\r\nBits/(Pixel*Frame)        : 0.152\r\nStream size               : 829 MiB (88%)\r\nSource stream size        : 829 MiB (88%)\r\nLanguage                  : English\r\nColor primaries           : BT.601 NTSC\r\nTransfer characteristics  : BT.601\r\nMatrix coefficients       : BT.601\r\nmdhd_Duration             : 6998492\r\n\r\nAudio\r\n-----\r\nID                        : 2\r\nFormat                    : AAC\r\nFormat/Info               : Advanced Audio Codec\r\nFormat profile            : LC\r\nCodec ID                  : 40\r\nDuration                  : 1h 56mn\r\nSource duration           : 1h 56mn\r\nBit rate mode             : Variable\r\nBit rate                  : 125 Kbps\r\nMaximum bit rate          : 212 Kbps\r\nChannel(s)                : 2 channels\r\nChannel positions         : Front: L R\r\nSampling rate             : 48.0 KHz\r\nCompression mode          : Lossy\r\nStream size               : 105 MiB (11%)\r\nSource stream size        : 105 MiB (11%)\r\nLanguage                  : English","torrent":{"xt":"urn:btih:adc3924266f81adf91ddfd973bf4f6d8fc166edd","amp;dn":"Ben.+Hur.+2016.TS.H264","amp;tr":["udp%3A%2F%2Ftracker.leechers-paradise.org%3A6969","udp%3A%2F%2Fzer0day.ch%3A1337","udp%3A%2F%2Fopen.demonii.com%3A1337","udp%3A%2F%2Ftracker.coppersurfer.tk%3A6969","udp%3A%2F%2Fexodus.desync.com%3A6969"],"infoHash":"adc3924266f81adf91ddfd973bf4f6d8fc166edd","infoHashBuffer":{"type":"Buffer","data":[173,195,146,66,102,248,26,223,145,221,253,151,59,244,246,216,252,22,110,221]},"announce":[],"urlList":[]}}